<svg xmlns="http://www.w3.org/2000/svg" xmlns:xlink="http://www.w3.org/1999/xlink" viewBox="0 0 316.7 90.5">
<style type="text/css">
	.st1{fill:#fff;}
</style>
	<g id="layer101">
		<path class="st1" d="M109.8,89.9c-3.5-0.7-7-2.4-8.6-4c-2-2-3.6-6.4-3.6-10c0-0.5,0.7-0.6,10-0.6h10v1.1c0,1.6,1.4,3,3,3c2.7,0,3.3-1.3,3.3-6.6v-3.8l-1.8,1.2c-2.7,1.8-5.2,2.6-8.5,2.8c-6.3,0.3-11.5-1.9-13.9-6.1c-1.7-2.9-1.8-4.2-2-20.3c-0.1-9.4,0-15.9,0.2-17.7c0.6-5.2,2.1-8.3,5-10.5c1.8-1.4,4-2,7.5-2.2c4.5-0.3,8,0.9,11.4,3.6l1.7,1.4v-3.3v-3.4h10.1h10.1v30.7c0,18.1-0.1,31.4-0.3,32.5c-0.4,2.7-1.4,4.5-3.8,6.9c-2.4,2.4-5.4,4-9.4,5.1c-2.2,0.6-3.5,0.7-10.1,0.8C113.7,90.5,112.2,90.5,109.8,89.9z M121.9,60.9c0.5-0.4,1.1-1.3,1.3-2c0.2-0.7,0.3-6.5,0.3-14.8c0-12.3-0.1-13.7-0.6-14.7c-0.7-1.4-1.7-1.9-3.6-1.9c-1.7,0-2.8,0.7-3.7,2.3c-0.5,0.9-0.5,2.3-0.5,14.9c0,10.3,0.1,14.2,0.4,14.8C116.4,61.8,120.1,62.5,121.9,60.9z" />
		<path class="st1" d="M63.2,80.6c-7.9-1.5-12.7-5.8-14.6-13c-1-3.7-1.2-8.6-1-22.4c0.2-14.5,0.3-16,2-19.3c2-3.9,7.1-7.5,12.8-8.9c5.1-1.3,13.1-0.9,18,0.9c4.2,1.6,8.4,5,9.9,8.1c1.4,2.9,2.2,8.3,2.2,14.1v3.2H83h-9.5v-6.7c0-7.7-0.1-8.1-2.3-9c-2.2-0.9-4.5-0.2-5.5,1.8c-0.5,1-0.6,2.4-0.6,18.9c0,17.3,0,17.9,0.6,19c1,1.7,2.2,2.4,4.1,2.4c2.1,0,3.2-0.7,4-2.4c0.5-1.2,0.6-2.1,0.6-7.4v-6.1h9h9v4.1c0,7.4-0.7,10.5-3.2,14.5c-2.4,3.8-6.4,6.7-11.2,7.9C75.5,81,66.2,81.2,63.2,80.6z" />
		<path class="st1" d="M186,80.9c-7.6-1.2-13.2-4.7-15.8-10c-2-4.1-2.1-5.3-2.3-19.5c-0.3-20.5,0.5-24.8,5.4-29.5c3.6-3.5,8.7-5.3,15.5-5.6c10.5-0.5,19,3.3,22.5,9.9c2.1,3.9,2.4,6.1,2.5,16.8l0.2,9.6h-13.4h-13.4l0.1,7.2c0.1,6,0.2,7.3,0.6,8.2c0.9,1.7,3.8,2.4,5.4,1.3c1.6-1.1,1.9-2.1,2.1-8l0.1-5.5h9.2h9.2l-0.1,5.3c-0.1,4.2-0.3,5.7-0.8,7.1c-2.1,6-7,10.5-13.3,12.2C198.1,80.8,188.3,81.2,186,80.9z M195.4,38.3c0-6.7-0.3-8.7-1.6-9.8c-2.2-2-5.4-0.7-6,2.3c-0.1,0.8-0.3,4-0.3,7.1v5.6h4h4V38.3z" />
		<path class="st1" d="M229.2,80.7c-3.1-0.7-6.7-3.4-7.9-6.1c-0.4-0.9-1-2.6-1.1-3.7c-0.4-2.8-0.4-41.9,0-44.7c0.7-4.1,2.6-6.6,6.3-8.6c5.4-2.8,13.1-1.8,18,2.1l1.3,1.1V10.6V0.3h10.1H266v39.9v39.9h-10.1h-10.1l-0.1-2.1l-0.1-2.1l-1.6,1.3c-2,1.6-4.3,2.8-6.5,3.3C235.6,81.1,231.1,81.2,229.2,80.7z M244.2,69.1c1.6-1.2,1.6-1.6,1.5-21.3l-0.1-18.3l-0.9-0.9c-0.7-0.7-1.2-0.9-2.7-1c-1.6-0.1-1.9,0-2.9,0.7c-0.5,0.4-1.1,1.4-1.3,2c-0.3,0.8-0.3,7.1-0.3,19.3l0.1,18.1l0.8,0.8C239.8,70,242.5,70.3,244.2,69.1z" />
		<path class="st1" d="M281.6,80.6c-2.3-0.6-3.4-1.2-5.1-2.9c-1.8-1.7-3-4.2-3.5-7.3c-0.2-1.3-0.3-12.4-0.3-27.6V17.4h9.5h9.5v24.7c0,27.6-0.1,26.5,2.1,27.4c1,0.4,1.4,0.4,2.4,0.2c2.4-0.8,2.3,1,2.4-27.2l0.1-25.1h9h9v31.4v31.4h-9.2h-9.2l0.2-2.3l0.2-2.3l-1.8,1.7c-1.9,1.8-3.8,2.9-6.1,3.5C288.7,81.2,283.5,81.1,281.6,80.6z" />
		<path class="st1" d="M155.7,80c-1.8-0.7-2.8-1.5-3.6-3.1c-0.6-1.2-0.7-1.7-0.6-3.4c0.3-3.7,2.6-5.8,6.3-5.8c2.7,0,4.6,1.1,5.6,3.3C165.9,76.2,160.9,81.9,155.7,80z" />
		<path class="st1" d="M0,40.1V0h10.1h10.1l0.1,17.1l0.1,17.1l3.8-9.8l3.8-9.8h8.5c5.6,0,8.5,0.1,8.5,0.3c0,0.2-2.2,6.3-4.9,13.6c-2.7,7.3-4.9,13.5-4.9,13.7c0,0.3,3,8.7,6.7,18.8c3.7,10.1,6.7,18.6,6.7,18.7c0,0.2-3.7,0.3-9.7,0.2L29,80l-4.3-12.8l-4.4-12.8v12.9l0,12.9H10.1H0V40.1z" />
	</g>
</svg>