<svg xmlns="http://www.w3.org/2000/svg" xmlns:xlink="http://www.w3.org/1999/xlink" viewBox="0 0 10.33 3.45">
<style type="text/css">
	.st0{fill:#040000;}
</style>
<g>
	<path class="st0" d="M0.49,0.53c0-0.04,0-0.08-0.01-0.12S0.46,0.36,0.44,0.34S0.4,0.3,0.37,0.29C0.34,0.28,0.3,0.28,0.26,0.28
		c-0.06,0-0.14,0.01-0.24,0.02L0,0.18C0.14,0.15,0.26,0.12,0.35,0.1s0.18-0.03,0.24-0.03c0.06,0,0.11,0.01,0.15,0.02
		c0.04,0.02,0.06,0.04,0.08,0.07C0.84,0.21,0.85,0.25,0.86,0.3s0.01,0.1,0.01,0.16c0,0.02,0,0.05,0,0.11c0,0.06,0,0.13-0.01,0.22
		c0,0.09-0.01,0.19-0.01,0.31c0,0.12-0.01,0.24-0.01,0.38c0,0.14-0.01,0.28-0.01,0.43c0,0.15-0.01,0.31-0.01,0.47
		c0,0.16-0.01,0.33-0.02,0.49C0.79,3.03,0.78,3.2,0.78,3.36L0.44,3.41l-0.03,0c0.01-0.27,0.02-0.54,0.03-0.78
		C0.45,2.37,0.46,2.13,0.47,1.9c0.01-0.23,0.01-0.46,0.02-0.69C0.48,0.99,0.49,0.76,0.49,0.53z M1.19,1.55
		c0.12,0.21,0.23,0.38,0.33,0.54c0.1,0.15,0.19,0.28,0.27,0.4C1.86,2.6,1.93,2.69,1.99,2.77c0.06,0.08,0.12,0.14,0.18,0.2
		c0.04,0.04,0.08,0.07,0.11,0.1c0.03,0.03,0.07,0.05,0.1,0.07c0.03,0.02,0.06,0.03,0.09,0.04c0.03,0.01,0.06,0.01,0.09,0.01
		c0.04,0,0.08,0,0.12-0.01c0.04-0.01,0.09-0.02,0.14-0.04l0.04,0.12C2.81,3.28,2.75,3.31,2.69,3.33C2.63,3.35,2.58,3.37,2.53,3.38
		C2.49,3.4,2.44,3.41,2.4,3.42C2.37,3.42,2.33,3.43,2.3,3.43c-0.03,0-0.06,0-0.09-0.01C2.17,3.41,2.15,3.4,2.12,3.38
		C2.09,3.37,2.06,3.35,2.03,3.33C2,3.3,1.97,3.28,1.94,3.25C1.89,3.2,1.83,3.13,1.76,3.05C1.69,2.97,1.61,2.87,1.53,2.74
		C1.44,2.62,1.34,2.47,1.24,2.3C1.13,2.13,1.01,1.93,0.88,1.71l0-0.02l0.11-0.15c0.16-0.22,0.3-0.42,0.43-0.61
		C1.55,0.75,1.68,0.6,1.8,0.47c0.12-0.13,0.23-0.23,0.33-0.3c0.11-0.07,0.21-0.11,0.31-0.11c0.04,0,0.08,0.01,0.11,0.02
		C2.59,0.09,2.61,0.1,2.64,0.12c0.02,0.02,0.04,0.04,0.05,0.07C2.69,0.22,2.7,0.25,2.7,0.28c0,0.05-0.01,0.09-0.03,0.14
		C2.64,0.46,2.61,0.5,2.57,0.53H2.56C2.52,0.49,2.48,0.46,2.44,0.45C2.4,0.43,2.37,0.43,2.33,0.43c-0.08,0-0.16,0.03-0.25,0.09
		C1.99,0.58,1.9,0.66,1.8,0.76c-0.1,0.1-0.2,0.22-0.3,0.36C1.4,1.26,1.29,1.4,1.19,1.55z"/>
	<path class="st0" d="M5.55,0C5.67,0,5.79,0.01,5.9,0.03C6,0.06,6.09,0.09,6.17,0.12s0.14,0.07,0.18,0.11s0.07,0.07,0.07,0.1
		c0,0.07,0,0.15-0.01,0.26c0,0.1-0.01,0.23-0.02,0.38l-0.12,0c0-0.01,0-0.03,0-0.04c0-0.01,0-0.02,0-0.04
		c0-0.07-0.01-0.13-0.02-0.19C6.23,0.64,6.21,0.58,6.17,0.53c-0.04-0.05-0.08-0.1-0.14-0.14C5.98,0.34,5.93,0.31,5.86,0.28
		s-0.13-0.05-0.2-0.07C5.59,0.2,5.52,0.19,5.44,0.19c-0.13,0-0.24,0.02-0.35,0.06c-0.1,0.04-0.2,0.09-0.28,0.16
		C4.73,0.48,4.66,0.57,4.6,0.66c-0.06,0.1-0.11,0.2-0.15,0.31C4.41,1.09,4.38,1.21,4.36,1.33C4.34,1.45,4.33,1.58,4.33,1.71
		c0,0.15,0.01,0.29,0.04,0.42s0.06,0.25,0.11,0.37c0.05,0.11,0.1,0.21,0.17,0.3c0.06,0.09,0.14,0.16,0.22,0.23
		c0.08,0.06,0.17,0.11,0.26,0.14c0.09,0.03,0.19,0.05,0.3,0.05c0.07,0,0.15-0.01,0.22-0.02C5.72,3.17,5.8,3.15,5.88,3.11
		c0.08-0.03,0.16-0.08,0.24-0.13C6.2,2.93,6.28,2.87,6.36,2.8c0.01,0,0.02,0.01,0.03,0.01C6.39,2.82,6.4,2.82,6.41,2.83
		c0.01,0.01,0.02,0.01,0.02,0.02c0.01,0.01,0.01,0.02,0.01,0.03c0,0.01,0,0.01-0.01,0.02c-0.09,0.1-0.19,0.19-0.28,0.26
		c-0.1,0.07-0.19,0.13-0.29,0.17S5.67,3.4,5.57,3.42c-0.1,0.02-0.2,0.03-0.29,0.03c-0.13,0-0.25-0.02-0.37-0.05
		C4.79,3.36,4.68,3.31,4.58,3.24C4.48,3.18,4.39,3.1,4.31,3C4.23,2.91,4.16,2.8,4.11,2.68C4.05,2.56,4,2.44,3.97,2.3
		C3.94,2.16,3.93,2.01,3.93,1.86c0-0.15,0.01-0.3,0.05-0.45C4,1.26,4.05,1.12,4.11,0.98c0.06-0.14,0.13-0.27,0.22-0.38
		c0.09-0.12,0.2-0.22,0.32-0.31C4.77,0.19,4.9,0.13,5.05,0.08C5.2,0.03,5.37,0,5.55,0z"/>
	<path class="st0" d="M9.45,0C9.58,0,9.7,0.01,9.8,0.03c0.11,0.02,0.2,0.05,0.28,0.08c0.08,0.03,0.14,0.07,0.18,0.11
		s0.07,0.07,0.07,0.1c0,0.07,0,0.15-0.01,0.26c-0.01,0.1-0.01,0.23-0.02,0.38l-0.12,0c0-0.01,0-0.03,0-0.04c0-0.01,0-0.03,0-0.04
		c0-0.07-0.01-0.13-0.02-0.19c-0.01-0.06-0.04-0.12-0.08-0.17C10.05,0.47,10,0.42,9.95,0.38S9.83,0.3,9.77,0.27
		C9.71,0.25,9.64,0.22,9.56,0.21S9.42,0.19,9.34,0.19c-0.13,0-0.25,0.02-0.36,0.06c-0.11,0.04-0.21,0.1-0.29,0.17
		C8.6,0.49,8.52,0.58,8.46,0.67C8.4,0.77,8.35,0.88,8.3,0.99C8.26,1.11,8.23,1.23,8.21,1.36S8.18,1.61,8.18,1.74
		c0,0.18,0.01,0.34,0.04,0.48C8.26,2.37,8.3,2.5,8.35,2.61C8.4,2.72,8.47,2.82,8.54,2.9C8.62,2.98,8.7,3.05,8.79,3.1
		c0.09,0.05,0.18,0.09,0.29,0.12c0.1,0.03,0.21,0.04,0.31,0.04c0.09,0,0.16-0.01,0.22-0.02c0.06-0.01,0.11-0.03,0.14-0.05
		c0.04-0.02,0.07-0.04,0.08-0.07c0.02-0.03,0.03-0.06,0.03-0.09c0.01-0.06,0.01-0.12,0.01-0.19c0-0.07,0-0.14,0-0.2V2.5
		c0-0.07,0-0.13-0.02-0.17C9.86,2.3,9.84,2.27,9.81,2.25C9.79,2.23,9.75,2.22,9.7,2.22c-0.05,0-0.11-0.01-0.18-0.01H9.45
		c-0.01,0-0.03,0-0.04,0c-0.02,0-0.04,0-0.06,0L9.34,2.07c0.02,0,0.03,0,0.04,0s0.02,0,0.03,0h0.06c0.06,0,0.13,0,0.2,0
		c0.07,0,0.14,0,0.2,0c0.06,0,0.11,0,0.16,0c0.04,0,0.07,0,0.08,0c0.05,0,0.09,0.01,0.11,0.04c0.02,0.03,0.03,0.07,0.03,0.13
		c0,0.04,0,0.09,0,0.15c0,0.06,0,0.13-0.01,0.2c0,0.07-0.01,0.15-0.01,0.24s-0.01,0.17-0.01,0.26c0,0.03,0,0.06-0.01,0.09
		c0,0.02-0.01,0.04-0.02,0.06c-0.01,0.02-0.02,0.03-0.04,0.04c-0.02,0.01-0.03,0.02-0.06,0.03c-0.03,0.01-0.07,0.03-0.12,0.05
		C9.94,3.36,9.88,3.37,9.82,3.39C9.75,3.4,9.68,3.41,9.6,3.42C9.52,3.43,9.43,3.44,9.35,3.44c-0.12,0-0.24-0.01-0.36-0.03
		c-0.12-0.02-0.24-0.05-0.36-0.1C8.51,3.26,8.4,3.2,8.29,3.12C8.19,3.04,8.1,2.94,8.02,2.82C7.95,2.7,7.89,2.57,7.84,2.41
		C7.8,2.25,7.77,2.06,7.77,1.85c0-0.15,0.02-0.3,0.05-0.45C7.85,1.26,7.9,1.11,7.96,0.97S8.1,0.71,8.19,0.59
		c0.09-0.12,0.2-0.22,0.33-0.31c0.12-0.09,0.26-0.16,0.42-0.21C9.09,0.03,9.26,0,9.45,0z"/>
</g>
</svg>
